<svg width="91" height="39" viewBox="0 0 91 39" fill="none" xmlns="http://www.w3.org/2000/svg">
<mask id="mask0_2992_79" style="mask-type:luminance" maskUnits="userSpaceOnUse" x="0" y="0" width="91" height="39">
<path d="M0.404541 0.124023H90.5103V38.4695H0.404541V0.124023Z" fill="white"/>
</mask>
<g mask="url(#mask0_2992_79)">
<path fill-rule="evenodd" clip-rule="evenodd" d="M29.2477 0.521189C29.8519 0.785641 30.3773 1.15587 30.824 1.60544C31.2705 2.05501 31.612 2.58391 31.901 3.19215C32.1637 3.80038 32.295 4.46152 32.295 5.14909V30.2191C32.295 30.4572 32.2162 30.6423 32.0586 30.8009C31.901 30.9595 31.7171 31.0389 31.4807 31.0389H25.5174C25.2809 31.0389 25.0971 30.9595 24.9657 30.8009C24.8344 30.6423 24.7556 30.4572 24.7556 30.2191V7.42337H19.9482V30.2191C19.9482 30.4572 19.8694 30.6423 19.7381 30.8009C19.6067 30.9595 19.3964 31.0389 19.1863 31.0389H13.7747C13.5383 31.0389 13.3544 30.9595 13.1968 30.8009C13.0392 30.6423 12.9604 30.4572 12.9604 30.2191V7.42337H8.15298V30.2191C8.15298 30.7745 7.89029 31.0389 7.33862 31.0389H1.42788C0.876223 31.0389 0.613525 30.7745 0.613525 30.2191V0.944312C0.613525 0.388964 0.876223 0.124512 1.42788 0.124512H27.2775C27.9867 0.124512 28.6173 0.256737 29.2477 0.521189Z" fill="#555F49"/>
<path fill-rule="evenodd" clip-rule="evenodd" d="M58.2769 23.5284C58.5133 23.5284 58.7234 23.6077 58.8548 23.7665C59.0124 23.9251 59.0912 24.1367 59.0912 24.3746V30.2191C59.0912 30.4572 59.0124 30.6421 58.8548 30.8273C58.6972 30.986 58.5133 31.0653 58.2769 31.0653H37.8652C37.2873 31.0653 36.9982 30.7745 36.9982 30.2191V0.970756C36.9982 0.415408 37.2873 0.124512 37.8652 0.124512H44.1174C44.6953 0.124512 44.9843 0.415408 44.9843 0.970756V22.7615C44.9843 22.9996 45.0631 23.1847 45.247 23.3433C45.4046 23.5021 45.6147 23.555 45.8511 23.555H58.2769V23.5284Z" fill="#555F49"/>
<path fill-rule="evenodd" clip-rule="evenodd" d="M89.6415 0.124512C89.8779 0.124512 90.0881 0.203847 90.2457 0.362517C90.4033 0.521189 90.5085 0.732751 90.5085 0.970756V30.2984C90.5085 30.5364 90.4297 30.7216 90.2457 30.9067C90.0881 31.0653 89.8779 31.1446 89.6415 31.1446H83.2842C83.0478 31.1446 82.8376 31.0653 82.68 30.9067C82.5224 30.748 82.4173 30.5364 82.4173 30.2984V20.0642C82.4173 19.8261 82.3385 19.641 82.1809 19.4824C82.0233 19.3236 81.8394 19.2709 81.5768 19.2709H72.6713C72.4348 19.2709 72.2247 19.3502 72.0669 19.4824C71.9093 19.641 71.8043 19.8261 71.8043 20.0642V30.2984C71.8043 30.8538 71.5153 31.1446 70.9374 31.1446H64.6326C64.0547 31.1446 63.7657 30.8538 63.7657 30.2984V0.970756C63.7657 0.415408 64.0547 0.124512 64.6326 0.124512H70.9374C71.5153 0.124512 71.8043 0.415408 71.8043 0.970756V10.8877C71.8043 11.443 72.0932 11.7339 72.6713 11.7339H81.5768C81.8132 11.7339 82.0233 11.6546 82.1809 11.4959C82.3385 11.3373 82.4173 11.1257 82.4173 10.8877V0.970756C82.4173 0.732751 82.4961 0.547634 82.68 0.362517C82.8376 0.203847 83.0478 0.124512 83.2842 0.124512L89.6415 0.124512Z" fill="#555F49"/>
</g>
</svg>
